<svg width="272" height="285" viewBox="0 0 272 285" fill="none" xmlns="http://www.w3.org/2000/svg">
<path d="M133.912 0.293612C135.117 -0.0978383 136.415 -0.0979032 137.62 0.293612L217.819 26.3512C219.024 26.7427 220.075 27.506 220.819 28.5309L270.386 96.7536C271.13 97.7786 271.531 99.013 271.531 100.28V184.607C271.531 185.874 271.13 187.108 270.386 188.133L220.819 256.355C220.075 257.38 219.024 258.143 217.819 258.535L137.62 284.593C136.415 284.985 135.117 284.985 133.912 284.593L53.7119 258.535C52.5069 258.143 51.4567 257.38 50.7119 256.355L1.14551 188.133C0.400888 187.109 8.07702e-05 185.874 0 184.607V100.28C0 99.0131 0.400969 97.7786 1.14551 96.7536L50.7119 28.5309C51.4567 27.5059 52.5069 26.7428 53.7119 26.3512L133.912 0.293612Z" fill="url(#paint0_linear_3_34)"/>
<path d="M133.914 9.29358C135.119 8.90209 136.418 8.9022 137.623 9.29358L212.262 33.5446C213.467 33.936 214.517 34.6995 215.262 35.7242L261.392 99.2164C262.136 100.241 262.537 101.476 262.537 102.743V181.223C262.537 182.49 262.136 183.725 261.392 184.75L215.262 248.242C214.517 249.267 213.467 250.03 212.262 250.422L137.623 274.673C136.418 275.065 135.119 275.065 133.914 274.673L59.2754 250.422C58.0706 250.03 57.02 249.267 56.2754 248.242L10.1455 184.75C9.40115 183.725 9.00002 182.49 9 181.223V102.743C9.00014 101.476 9.40099 100.241 10.1455 99.2164L56.2754 35.7242C57.0201 34.6994 58.0706 33.9361 59.2754 33.5446L133.914 9.29358ZM89.5791 95.1754C99.0111 89.7486 109.814 87.0358 121.988 87.0358C130.378 87.0358 137.836 88.1322 144.361 90.3248L112.117 120.666C122.7 124.886 130.597 128.997 135.807 132.999C115.736 144.236 102.52 156.899 96.1592 170.987C92.6496 178.771 90.5934 188.693 89.9902 200.753C89.9354 201.739 89.9082 202.671 89.9082 203.547C89.9082 213.963 93.1435 220.213 99.6143 222.296C104.385 223.776 109.238 224.515 114.174 224.515C119.164 224.515 124.236 223.638 129.391 221.884C139.261 218.541 148.118 213.25 155.96 206.014C163.801 198.833 170.19 190.447 175.125 180.854C180.115 171.206 182.666 161.805 182.775 152.651C182.885 143.497 180.554 134.424 175.783 125.434C171.012 116.444 161.744 107.153 147.98 97.5602L180.883 62.3678C172.877 62.0937 164.843 61.9567 156.782 61.9567L136.301 62.2037C124.401 62.2037 113.049 60.9703 102.246 58.5035L89.5791 95.1754ZM141.894 149.362C145.568 149.362 148.666 149.636 151.188 150.184C156.563 157.31 159.25 165.588 159.25 175.016C159.25 181.375 158.071 186.61 155.713 190.721C154.068 194.504 149.077 198.56 140.742 202.89C136.629 205.028 132.544 206.097 128.486 206.097C124.483 206.097 120.535 205.001 116.642 202.808C108.69 198.313 104.714 192.694 104.714 185.952C104.714 184.636 104.879 183.266 105.208 181.84C107.072 173.234 109.705 166.931 113.104 162.929C116.559 158.873 121.303 155.611 127.335 153.144C133.367 150.623 138.22 149.362 141.894 149.362Z" fill="url(#paint1_linear_3_34)"/>
<defs>
<linearGradient id="paint0_linear_3_34" x1="253.198" y1="59.3551" x2="21.7888" y2="228.155" gradientUnits="userSpaceOnUse">
<stop stop-color="#00FBDF"/>
<stop offset="0.533654" stop-color="#477CFB"/>
<stop offset="0.846154" stop-color="#7F0CFF"/>
</linearGradient>
<linearGradient id="paint1_linear_3_34" x1="58.5755" y1="35.1871" x2="216.156" y2="251.251" gradientUnits="userSpaceOnUse">
<stop stop-color="#110729"/>
</linearGradient>
</defs>
</svg>
